<?xml version="1.0" standalone="no"?>
<!DOCTYPE svg PUBLIC "-//W3C//DTD SVG 20010904//EN"
 "http://www.w3.org/TR/2001/REC-SVG-20010904/DTD/svg10.dtd">
<svg version="1.0" xmlns="http://www.w3.org/2000/svg"
 width="192.000000pt" height="192.000000pt" viewBox="0 0 192.000000 192.000000"
 preserveAspectRatio="xMidYMid meet">

<g transform="translate(0.000000,192.000000) scale(0.100000,-0.100000)"
fill="#000000" stroke="none">
<path d="M462 759 c3 -61 10 -114 15 -118 6 -3 16 -23 22 -43 15 -47 10 -58
-73 -142 -60 -62 -86 -79 -86 -56 0 6 -15 10 -34 10 -31 0 -36 -4 -46 -36 -18
-53 -4 -102 41 -147 21 -22 39 -43 39 -48 0 -5 11 -11 25 -15 14 -3 25 -10 25
-15 0 -15 39 -10 60 8 11 10 20 23 20 30 0 7 5 13 10 13 6 0 10 11 10 25 0 14
-4 25 -10 25 -18 0 -10 39 14 64 13 15 27 26 31 26 10 0 85 81 85 92 0 4 7 8
15 8 8 0 15 -4 15 -10 0 -5 16 -12 35 -16 19 -3 35 -10 35 -15 0 -5 14 -9 30
-9 17 0 30 -4 30 -10 0 -6 28 -10 64 -10 75 0 76 1 76 104 l0 73 -82 6 c-45 4
-84 11 -87 16 -4 5 -19 13 -34 16 -15 4 -27 11 -27 15 0 5 -9 12 -20 15 -11 3
-20 15 -20 25 0 11 -8 23 -17 29 -15 8 -18 25 -19 103 l-2 93 -72 3 -73 3 5
-112z"/>
<path d="M1330 803 c0 -38 -5 -88 -11 -112 -10 -45 -56 -101 -83 -101 -8 0
-19 -7 -23 -15 -6 -10 -34 -17 -88 -22 -44 -3 -85 -12 -92 -19 -8 -8 -13 -39
-13 -78 0 -52 3 -66 15 -66 8 0 15 -4 15 -10 0 -6 28 -10 65 -10 37 0 65 4 65
10 0 6 14 10 30 10 17 0 30 4 30 10 0 5 11 12 25 16 14 3 25 10 25 15 0 23 37
4 79 -41 109 -116 115 -124 103 -128 -14 -4 -16 -72 -2 -72 6 0 10 -5 10 -11
0 -18 27 -39 50 -39 20 0 89 63 148 136 25 32 24 73 -3 100 -8 9 -15 20 -15
25 0 14 -58 11 -63 -3 -3 -11 -31 14 -165 155 -16 18 -16 19 1 32 10 7 21 29
24 49 3 20 9 36 13 36 11 0 22 126 14 166 l-6 34 -74 0 -74 0 0 -67z"/>
</g>
</svg>
